<svg width="132" height="15" viewBox="0 0 132 15" fill="none" xmlns="http://www.w3.org/2000/svg">
<path d="M9.576 5.285C9.492 4.151 8.547 3.542 7.161 3.542C6.342 3.542 5.376 3.71 5.376 4.34C5.376 5.096 6.552 5.327 8.043 5.6C10.605 6.083 14.049 6.671 14.049 10.178C14.049 13.307 10.878 14.378 7.497 14.378C3.612 14.378 0.693 12.866 0.693 9.506L4.956 9.086C5.208 10.556 6.258 11.018 7.749 11.018C8.568 11.018 9.576 10.787 9.576 10.241C9.576 9.485 8.19 9.275 6.531 8.939C4.032 8.414 0.903 7.658 0.903 4.382C0.903 1.253 4.578 0.181999 7.224 0.181999C10.542 0.181999 13.839 1.736 13.839 5.075L9.576 5.285ZM19.7011 7.175C19.7011 8.939 20.6671 10.472 22.8091 10.472C24.3631 10.472 25.2031 9.548 25.6231 8.099L29.5711 8.603C29.2141 12.488 26.4001 14.21 22.7041 14.21C18.1051 14.21 15.3541 11.312 15.5221 7.175C15.6901 3.08 18.1051 0.139999 22.8091 0.139999C26.4841 0.139999 29.2561 2.156 29.5921 5.768L25.6441 6.272C25.2871 5.054 24.6151 3.941 22.7251 3.92C20.8141 3.899 19.7011 5.453 19.7011 7.175ZM34.4994 14H30.0894L34.4154 0.370999H40.6734L44.9994 14H40.5894L39.9174 11.753H35.1714L34.4994 14ZM36.2634 8.162H38.8254L37.5444 3.899L36.2634 8.162ZM57.0457 14H46.4827V0.370999H50.6827V10.43H57.0457V14ZM69.681 14H59.013V0.370999H69.618V3.941H63.213V5.495H69.366V8.666H63.213V10.43H69.681V14ZM82.8967 14.021V12.383C82.0357 13.433 80.8597 14.231 79.2847 14.231C75.0637 14.252 72.1237 11.501 72.1237 7.175C72.1237 2.807 75.3787 0.119 79.5577 0.119C83.0227 0.119 86.0467 1.547 86.4247 5.327L82.4557 5.831C82.0777 4.508 81.1747 3.878 79.7677 3.878C77.2897 3.878 76.3027 5.327 76.3027 7.175C76.3027 8.939 77.3107 10.472 79.3897 10.472C80.6077 10.472 81.8677 10.409 82.7287 9.296L82.8967 9.065H79.8727V6.503H86.6137V14.021H82.8967ZM92.9693 14H88.7693V0.349999H95.5103C98.5763 0.349999 100.676 1.883 100.676 4.802C100.676 6.734 100.193 8.519 97.8833 9.086L101.453 14H96.6023L93.7463 10.115H92.9693V14ZM92.9693 6.608H94.5023C95.7203 6.608 96.4763 6.209 96.4763 5.096C96.4763 4.046 95.6783 3.878 94.4813 3.878H92.9693V6.608ZM106.072 14H101.662L105.988 0.370999H112.246L116.572 14H112.162L111.49 11.753H106.744L106.072 14ZM107.836 8.162H110.398L109.117 3.899L107.836 8.162ZM123.914 14H118.055V0.370999H123.914C129.311 0.370999 131.705 3.92 131.705 7.196C131.705 10.472 129.311 14 123.914 14ZM122.255 3.941V10.43H123.914C126.245 10.43 127.442 9.149 127.442 7.196C127.442 5.264 126.245 3.941 123.914 3.941H122.255Z" fill="#4E5BF8"/>
</svg>
