<svg width="420" height="250" viewBox="0 0 420 250" fill="none" xmlns="http://www.w3.org/2000/svg">
<rect width="412" height="250" fill="#F6F6F6"/>
<rect width="30" height="30" fill="#E2E5FF"/>
<rect x="0.25" y="0.25" width="29.5" height="29.5" fill="#F5F9FF" stroke="#E2E5FF" stroke-width="0.5"/>
<rect x="60.25" y="0.25" width="29.5" height="29.5" stroke="#E2E5FF" stroke-width="0.5"/>
<rect x="120.25" y="0.25" width="29.5" height="29.5" stroke="#E2E5FF" stroke-width="0.5"/>
<rect x="180.25" y="0.25" width="29.5" height="29.5" fill="#F5F9FF" stroke="#E2E5FF" stroke-width="0.5"/>
<rect x="240.25" y="0.25" width="29.5" height="29.5" stroke="#E2E5FF" stroke-width="0.5"/>
<rect x="300.25" y="0.25" width="29.5" height="29.5" stroke="#E2E5FF" stroke-width="0.5"/>
<rect x="360.25" y="0.25" width="29.5" height="29.5" fill="#F5F9FF" stroke="#E2E5FF" stroke-width="0.5"/>
<rect x="90.25" y="30.25" width="29.5" height="29.5" stroke="#E2E5FF" stroke-width="0.5"/>
<rect x="90.25" y="90.25" width="29.5" height="29.5" stroke="#E2E5FF" stroke-width="0.5"/>
<rect x="90.25" y="150.25" width="29.5" height="29.5" stroke="#E2E5FF" stroke-width="0.5"/>
<rect x="90.25" y="210.25" width="29.5" height="29.5" fill="#F5F9FF" stroke="#E2E5FF" stroke-width="0.5"/>
<rect x="150.25" y="30.25" width="29.5" height="29.5" fill="#F5F9FF" stroke="#E2E5FF" stroke-width="0.5"/>
<rect x="150.25" y="90.25" width="29.5" height="29.5" stroke="#E2E5FF" stroke-width="0.5"/>
<rect x="150.25" y="150.25" width="29.5" height="29.5" fill="#F5F9FF" stroke="#E2E5FF" stroke-width="0.5"/>
<rect x="150.25" y="210.25" width="29.5" height="29.5" stroke="#E2E5FF" stroke-width="0.5"/>
<rect x="210.25" y="30.25" width="29.5" height="29.5" stroke="#E2E5FF" stroke-width="0.5"/>
<rect x="210.25" y="90.25" width="29.5" height="29.5" fill="#F5F9FF" stroke="#E2E5FF" stroke-width="0.5"/>
<rect x="210.25" y="150.25" width="29.5" height="29.5" stroke="#E2E5FF" stroke-width="0.5"/>
<rect x="210.25" y="210.25" width="29.5" height="29.5" fill="#F5F9FF" stroke="#E2E5FF" stroke-width="0.5"/>
<rect x="270.25" y="30.25" width="29.5" height="29.5" stroke="#E2E5FF" stroke-width="0.5"/>
<rect x="270.25" y="90.25" width="29.5" height="29.5" stroke="#E2E5FF" stroke-width="0.5"/>
<rect x="270.25" y="150.25" width="29.5" height="29.5" stroke="#E2E5FF" stroke-width="0.5"/>
<rect x="270" y="210" width="30" height="30" fill="#F5F9FF"/>
<rect x="330.25" y="30.25" width="29.5" height="29.5" fill="#F5F9FF" stroke="#E2E5FF" stroke-width="0.5"/>
<rect x="390.25" y="30.25" width="29.5" height="29.5" stroke="#E2E5FF" stroke-width="0.5"/>
<rect x="330.25" y="90.25" width="29.5" height="29.5" stroke="#E2E5FF" stroke-width="0.5"/>
<rect x="390.25" y="90.25" width="29.5" height="29.5" fill="#F5F9FF" stroke="#E2E5FF" stroke-width="0.5"/>
<rect x="330.25" y="150.25" width="29.5" height="29.5" stroke="#E2E5FF" stroke-width="0.5"/>
<rect x="390.25" y="150.25" width="29.5" height="29.5" stroke="#E2E5FF" stroke-width="0.5"/>
<rect x="330.25" y="210.25" width="29.5" height="29.5" fill="#F5F9FF" stroke="#E2E5FF" stroke-width="0.5"/>
<rect x="390.25" y="210.25" width="29.5" height="29.5" fill="#F5F9FF" stroke="#E2E5FF" stroke-width="0.5"/>
<rect x="60.25" y="60.25" width="29.5" height="29.5" stroke="#E2E5FF" stroke-width="0.5"/>
<rect x="60.25" y="120.25" width="29.5" height="29.5" stroke="#E2E5FF" stroke-width="0.5"/>
<rect x="60.25" y="180.25" width="29.5" height="29.5" fill="#F5F9FF" stroke="#E2E5FF" stroke-width="0.5"/>
<rect x="60.25" y="240.25" width="29.5" height="9.5" fill="#F5F9FF" stroke="#E2E5FF" stroke-width="0.5"/>
<rect x="120.25" y="60.25" width="29.5" height="29.5" stroke="#E2E5FF" stroke-width="0.5"/>
<rect x="120.25" y="120.25" width="29.5" height="29.5" fill="#F5F9FF" stroke="#E2E5FF" stroke-width="0.5"/>
<rect x="120.25" y="180.25" width="29.5" height="29.5" stroke="#E2E5FF" stroke-width="0.5"/>
<rect x="120.25" y="240.25" width="29.5" height="9.5" fill="#F5F9FF" stroke="#E2E5FF" stroke-width="0.5"/>
<rect x="180.25" y="60.25" width="29.5" height="29.5" stroke="#E2E5FF" stroke-width="0.5"/>
<rect x="180.25" y="120.25" width="29.5" height="29.5" stroke="#E2E5FF" stroke-width="0.5"/>
<rect x="180.25" y="180.25" width="29.5" height="29.5" stroke="#E2E5FF" stroke-width="0.5"/>
<rect x="180.25" y="240.25" width="29.5" height="9.5" fill="#F5F9FF" stroke="#E2E5FF" stroke-width="0.5"/>
<rect x="240.25" y="60.25" width="29.5" height="29.5" fill="#F5F9FF" stroke="#E2E5FF" stroke-width="0.5"/>
<rect x="240.25" y="120.25" width="29.5" height="29.5" stroke="#E2E5FF" stroke-width="0.5"/>
<rect x="240.25" y="180.25" width="29.5" height="29.5" fill="#F5F9FF" stroke="#E2E5FF" stroke-width="0.5"/>
<rect x="240.25" y="240.25" width="29.5" height="9.5" fill="#F5F9FF" stroke="#E2E5FF" stroke-width="0.5"/>
<rect x="300.25" y="60.25" width="29.5" height="29.5" stroke="#E2E5FF" stroke-width="0.5"/>
<rect x="300.25" y="120.25" width="29.5" height="29.5" stroke="#E2E5FF" stroke-width="0.5"/>
<rect x="300.25" y="180.25" width="29.5" height="29.5" stroke="#E2E5FF" stroke-width="0.5"/>
<rect x="300.25" y="240.25" width="29.5" height="9.5" fill="#F5F9FF" stroke="#E2E5FF" stroke-width="0.5"/>
<rect x="360.25" y="60.25" width="29.5" height="29.5" stroke="#E2E5FF" stroke-width="0.5"/>
<rect x="360.25" y="120.25" width="29.5" height="29.5" fill="#F5F9FF" stroke="#E2E5FF" stroke-width="0.5"/>
<rect x="360.25" y="180.25" width="29.5" height="29.5" fill="#F5F9FF" stroke="#E2E5FF" stroke-width="0.5"/>
<rect x="360.25" y="240.25" width="29.5" height="9.5" fill="#F5F9FF" stroke="#E2E5FF" stroke-width="0.5"/>
<rect x="0.25" y="60.25" width="29.5" height="29.5" stroke="#E2E5FF" stroke-width="0.5"/>
<rect x="0.25" y="120.25" width="29.5" height="29.5" fill="#F5F9FF" stroke="#E2E5FF" stroke-width="0.5"/>
<rect x="0.25" y="180.25" width="29.5" height="29.5" stroke="#E2E5FF" stroke-width="0.5"/>
<rect x="0.25" y="240.25" width="29.5" height="9.5" fill="#F5F9FF" stroke="#E2E5FF" stroke-width="0.5"/>
<rect x="30.25" y="30.25" width="29.5" height="29.5" fill="#F5F9FF" stroke="#E2E5FF" stroke-width="0.5"/>
<rect x="30.25" y="90.25" width="29.5" height="29.5" stroke="#E2E5FF" stroke-width="0.5"/>
<rect x="30.25" y="150.25" width="29.5" height="29.5" stroke="#E2E5FF" stroke-width="0.5"/>
<rect x="30.25" y="210.25" width="29.5" height="29.5" stroke="#E2E5FF" stroke-width="0.5"/>
</svg>
