<svg width="70" height="44" viewBox="0 0 70 44" fill="none" xmlns="http://www.w3.org/2000/svg">
<circle cx="2.5" cy="41.5" r="2.5" fill="#D9D9D9"/>
<circle cx="15.5" cy="41.5" r="2.5" fill="#D9D9D9"/>
<circle cx="28.5" cy="41.5" r="2.5" fill="#D9D9D9"/>
<circle cx="41.5" cy="41.5" r="2.5" fill="#D9D9D9"/>
<circle cx="54.5" cy="41.5" r="2.5" fill="#D9D9D9"/>
<circle cx="67.5" cy="41.5" r="2.5" fill="#D9D9D9"/>
<circle cx="2.5" cy="28.5" r="2.5" fill="#D9D9D9"/>
<circle cx="15.5" cy="28.5" r="2.5" fill="#D9D9D9"/>
<circle cx="28.5" cy="28.5" r="2.5" fill="#D9D9D9"/>
<circle cx="41.5" cy="28.5" r="2.5" fill="#D9D9D9"/>
<circle cx="54.5" cy="28.5" r="2.5" fill="#D9D9D9"/>
<circle cx="67.5" cy="28.5" r="2.5" fill="#D9D9D9"/>
<circle cx="2.5" cy="15.5" r="2.5" fill="#D9D9D9"/>
<circle cx="15.5" cy="15.5" r="2.5" fill="#D9D9D9"/>
<circle cx="28.5" cy="15.5" r="2.5" fill="#D9D9D9"/>
<circle cx="41.5" cy="15.5" r="2.5" fill="#D9D9D9"/>
<circle cx="54.5" cy="15.5" r="2.5" fill="#D9D9D9"/>
<circle cx="67.5" cy="15.5" r="2.5" fill="#D9D9D9"/>
<circle cx="2.5" cy="2.5" r="2.5" fill="#D9D9D9"/>
<circle cx="15.5" cy="2.5" r="2.5" fill="#D9D9D9"/>
<circle cx="28.5" cy="2.5" r="2.5" fill="#D9D9D9"/>
<circle cx="41.5" cy="2.5" r="2.5" fill="#D9D9D9"/>
<circle cx="54.5" cy="2.5" r="2.5" fill="#D9D9D9"/>
<circle cx="67.5" cy="2.5" r="2.5" fill="#D9D9D9"/>
</svg>
