<svg width="209" height="37" viewBox="0 0 209 37" fill="none" xmlns="http://www.w3.org/2000/svg">
<path d="M54.9974 15.0813C54.8921 13.6606 53.7082 12.8976 51.9717 12.8976C50.9456 12.8976 49.7354 13.1081 49.7354 13.8974C49.7354 14.8446 51.2087 15.134 53.0767 15.476C56.2865 16.0811 60.6014 16.8178 60.6014 21.2116C60.6014 25.1318 56.6286 26.4736 52.3927 26.4736C47.5253 26.4736 43.8682 24.5793 43.8682 20.3697L49.2092 19.8435C49.5249 21.6852 50.8404 22.264 52.7084 22.264C53.7345 22.264 54.9974 21.9746 54.9974 21.2905C54.9974 20.3434 53.2609 20.0802 51.1824 19.6593C48.0515 19.0015 44.1313 18.0544 44.1313 13.95C44.1313 10.0298 48.7356 8.68802 52.0506 8.68802C56.2076 8.68802 60.3383 10.635 60.3383 14.8182L54.9974 15.0813ZM67.6827 17.4492C67.6827 19.6593 68.8929 21.5799 71.5766 21.5799C73.5235 21.5799 74.5759 20.4223 75.1021 18.6069L80.0484 19.2383C79.6011 24.1057 76.0756 26.2631 71.445 26.2631C65.6831 26.2631 62.2365 22.6323 62.447 17.4492C62.6575 12.3188 65.6831 8.6354 71.5766 8.6354C76.1808 8.6354 79.6537 11.1612 80.0747 15.6865L75.1284 16.3179C74.6811 14.7919 73.8392 13.3975 71.4713 13.3712C69.0771 13.3449 67.6827 15.2918 67.6827 17.4492ZM86.2228 26H80.6977L86.1176 8.92481H93.9579L99.3778 26H93.8527L93.0108 23.1848H87.0647L86.2228 26ZM88.4328 18.6858H91.6427L90.0378 13.3449L88.4328 18.6858ZM114.47 26H101.236V8.92481H106.498V21.5273H114.47V26ZM130.3 26H116.935V8.92481H130.221V13.3975H122.197V15.3444H129.906V19.3173H122.197V21.5273H130.3V26ZM146.858 26.0263V23.9741C145.779 25.2896 144.306 26.2894 142.332 26.2894C137.044 26.3157 133.361 22.8691 133.361 17.4492C133.361 11.9768 137.439 8.60909 142.674 8.60909C147.016 8.60909 150.804 10.3982 151.278 15.134L146.305 15.7654C145.832 14.1079 144.7 13.3186 142.938 13.3186C139.833 13.3186 138.596 15.134 138.596 17.4492C138.596 19.6593 139.859 21.5799 142.464 21.5799C143.99 21.5799 145.569 21.501 146.647 20.1066L146.858 19.8171H143.069V16.6073H151.515V26.0263H146.858ZM159.477 26H154.215V8.8985H162.661C166.502 8.8985 169.133 10.8191 169.133 14.4762C169.133 16.8967 168.528 19.1331 165.634 19.8435L170.106 26H164.029L160.451 21.1327H159.477V26ZM159.477 16.7389H161.398C162.924 16.7389 163.871 16.239 163.871 14.8446C163.871 13.5291 162.871 13.3186 161.372 13.3186H159.477V16.7389ZM175.893 26H170.368L175.787 8.92481H183.628L189.048 26H183.523L182.681 23.1848H176.735L175.893 26ZM178.103 18.6858H181.312L179.708 13.3449L178.103 18.6858ZM198.246 26H190.906V8.92481H198.246C205.008 8.92481 208.007 13.3712 208.007 17.4756C208.007 21.5799 205.008 26 198.246 26ZM196.168 13.3975V21.5273H198.246C201.167 21.5273 202.667 19.9224 202.667 17.4756C202.667 15.055 201.167 13.3975 198.246 13.3975H196.168Z" fill="#2528CB"/>
<path d="M24.5446 20.2246H24.5087L5.31969 20.1809C5.31969 20.1809 4.92786 16.133 6.99944 12.8562C7.39087 12.232 7.86332 11.6625 8.40442 11.1624C8.40442 11.1624 11.0099 8.04023 15.4902 7.90129C15.4902 7.90129 18.4563 7.319 21.8986 9.51546L29.3918 9.45458C29.3918 9.45458 26.6521 4.97735 20.1813 3.13994C19.3228 2.89559 18.4487 2.70991 17.5649 2.58419C17.5649 2.58419 15.2233 2.37188 12.201 3.18209C11.4208 3.39152 10.6561 3.65494 9.91245 3.97044C9.56744 4.11562 9.21932 4.28266 8.87119 4.45594C5.50859 6.17315 2.05076 9.40306 0.297643 15.4898C0.297643 15.4898 -0.912208 21.436 1.54652 25.5136H21.2632C22.1572 24.9186 22.9129 24.1385 23.479 23.2259C24.0452 22.3134 24.4086 21.2898 24.5446 20.2246Z" fill="#2528CB"/>
<path d="M31.0022 11.979H11.0654C8.55052 13.9054 7.9011 17.3086 7.9011 17.3086H7.93232L27.0136 17.5318C27.0136 17.5396 27.0136 17.5474 27.0136 17.5552C27.3633 19.2116 26.7857 21.4752 26.7857 21.4752C26.0692 26.2709 20.8707 28.6453 20.8707 28.6453C16.2108 31.3788 10.5191 28.1535 10.5191 28.1535L3.03516 28.1973C6.35093 33.441 12.8498 34.7398 12.8498 34.7398C19.5266 36.1292 25.3963 32.2311 25.3963 32.2311C31.1724 28.2878 32.0294 22.3275 32.0294 22.3275C33.3314 16.4594 31.0022 11.979 31.0022 11.979Z" fill="#2528CB"/>
</svg>
