<svg width="209" height="37" viewBox="0 0 209 37" fill="none" xmlns="http://www.w3.org/2000/svg">
<path d="M54.9974 15.0813C54.8921 13.6606 53.7082 12.8976 51.9717 12.8976C50.9456 12.8976 49.7354 13.1081 49.7354 13.8974C49.7354 14.8446 51.2087 15.134 53.0767 15.476C56.2865 16.0811 60.6014 16.8178 60.6014 21.2116C60.6014 25.1318 56.6286 26.4736 52.3927 26.4736C47.5253 26.4736 43.8682 24.5793 43.8682 20.3697L49.2092 19.8435C49.5249 21.6852 50.8404 22.264 52.7084 22.264C53.7345 22.264 54.9974 21.9746 54.9974 21.2905C54.9974 20.3434 53.2609 20.0802 51.1824 19.6593C48.0515 19.0015 44.1313 18.0544 44.1313 13.95C44.1313 10.0298 48.7356 8.68802 52.0506 8.68802C56.2076 8.68802 60.3383 10.635 60.3383 14.8182L54.9974 15.0813ZM67.6827 17.4492C67.6827 19.6593 68.8929 21.5799 71.5766 21.5799C73.5235 21.5799 74.5759 20.4223 75.1021 18.6069L80.0484 19.2383C79.6011 24.1057 76.0756 26.2631 71.445 26.2631C65.6831 26.2631 62.2365 22.6323 62.447 17.4492C62.6575 12.3188 65.6831 8.6354 71.5766 8.6354C76.1808 8.6354 79.6537 11.1612 80.0747 15.6865L75.1284 16.3179C74.6811 14.7919 73.8392 13.3975 71.4713 13.3712C69.0771 13.3449 67.6827 15.2918 67.6827 17.4492ZM86.2228 26H80.6977L86.1176 8.92481H93.9579L99.3778 26H93.8527L93.0108 23.1848H87.0647L86.2228 26ZM88.4328 18.6858H91.6427L90.0378 13.3449L88.4328 18.6858ZM114.47 26H101.236V8.92481H106.498V21.5273H114.47V26ZM130.3 26H116.935V8.92481H130.221V13.3975H122.197V15.3444H129.906V19.3173H122.197V21.5273H130.3V26ZM146.858 26.0263V23.9741C145.779 25.2896 144.306 26.2894 142.332 26.2894C137.044 26.3157 133.361 22.8691 133.361 17.4492C133.361 11.9768 137.439 8.60909 142.674 8.60909C147.016 8.60909 150.804 10.3982 151.278 15.134L146.305 15.7654C145.832 14.1079 144.7 13.3186 142.938 13.3186C139.833 13.3186 138.596 15.134 138.596 17.4492C138.596 19.6593 139.859 21.5799 142.464 21.5799C143.99 21.5799 145.569 21.501 146.647 20.1066L146.858 19.8171H143.069V16.6073H151.515V26.0263H146.858ZM159.477 26H154.215V8.8985H162.661C166.502 8.8985 169.133 10.8191 169.133 14.4762C169.133 16.8967 168.528 19.1331 165.634 19.8435L170.106 26H164.029L160.451 21.1327H159.477V26ZM159.477 16.7389H161.398C162.924 16.7389 163.871 16.239 163.871 14.8446C163.871 13.5291 162.871 13.3186 161.372 13.3186H159.477V16.7389ZM175.893 26H170.368L175.787 8.92481H183.628L189.048 26H183.523L182.681 23.1848H176.735L175.893 26ZM178.103 18.6858H181.312L179.708 13.3449L178.103 18.6858ZM198.246 26H190.906V8.92481H198.246C205.008 8.92481 208.007 13.3712 208.007 17.4756C208.007 21.5799 205.008 26 198.246 26ZM196.168 13.3975V21.5273H198.246C201.167 21.5273 202.667 19.9224 202.667 17.4756C202.667 15.055 201.167 13.3975 198.246 13.3975H196.168Z" fill="white"/>
<path d="M24.5373 20.2257H24.5014L5.3181 20.182C5.3181 20.182 4.92638 16.1339 6.99734 12.857C7.38866 12.2328 7.86096 11.6633 8.40191 11.1632C8.40191 11.1632 11.0066 8.0409 15.4856 7.90196C15.4856 7.90196 18.4508 7.31965 21.892 9.51618L29.383 9.4553C29.383 9.4553 26.6441 4.97792 20.1753 3.14044C19.317 2.89609 18.4431 2.71041 17.5597 2.58468C17.5597 2.58468 15.2187 2.37236 12.1974 3.1826C11.4174 3.39204 10.6529 3.65546 9.90948 3.97098C9.56458 4.11616 9.21656 4.28321 8.86854 4.45649C5.50694 6.17376 2.05014 9.40378 0.297554 15.4907C0.297554 15.4907 -0.911935 21.4371 1.54606 25.5149H21.2568C22.1506 24.9199 22.906 24.1397 23.472 23.2271C24.038 22.3145 24.4013 21.291 24.5373 20.2257Z" fill="white"/>
<path d="M31.0017 11.9785H11.0709C8.55668 13.905 7.90745 17.3083 7.90745 17.3083H7.93867L27.0143 17.5315C27.0143 17.5393 27.0143 17.5471 27.0143 17.5549C27.3638 19.2113 26.7864 21.475 26.7864 21.475C26.0701 26.2708 20.8732 28.6454 20.8732 28.6454C16.2147 31.3789 10.5246 28.1536 10.5246 28.1536L3.04297 28.1973C6.35775 33.4412 12.8547 34.7401 12.8547 34.7401C19.5295 36.1295 25.3974 32.2313 25.3974 32.2313C31.1718 28.2879 32.0286 22.3274 32.0286 22.3274C33.3301 16.459 31.0017 11.9785 31.0017 11.9785Z" fill="white"/>
</svg>
